# xmcd
#
# Track frame offsets:
#	150
#	20722
#	37500
#	55360
#	67060
#	82295
#	96642
#	115187
#	129987
#	144767
#
# Disc length: 2076 seconds
#
# Revision: 3
# Processed by: cddbd v1.4PL0 Copyright (c) Steve Scherf et al.
# Submitted via: audiograbber 1.81.03
#
DISCID=8a081a0a
DTITLE=Various Artist - New Orleans Blues Party (ED CD 7028)
DYEAR=1997
DGENRE=Blues
TTITLE0=Earl King - No City Like New Orleans
TTITLE1=Davell Crawford - Something You Got
TTITLE2=Carol Fran and Clarence Holliman - Daddy Daddy Daddy
TTITLE3=Professor Longhair - Whole Lotta Lovin'
TTITLE4=Mark 'Kaz' Kazanoff and Snooks Eaglin - Swannee River Rock
TTITLE5=Bo Dollis and The Wild Magnolias - Coconut Milk
TTITLE6=George Porter Jr. - Woogie Boogie
TTITLE7=Chuck Carbo - Can't Straighten Your Mind
TTITLE8=Snooks Eaglin - Oh Sweetness
TTITLE9=Irma Thomas - Breakaway
EXTD=1997 Rounder Records
EXTT0=
EXTT1=
EXTT2=
EXTT3=
EXTT4=
EXTT5=
EXTT6=
EXTT7=
EXTT8=
EXTT9=
PLAYORDER=
